PathFileType	4	(X/Y/Z)	C:\Users\Basilio\Documents\Thesis Gigler\squatting_fais\c3dfiles\058\SJ_pre5\markers_experimental.trc
DataRate	CameraRate	NumFrames	NumMarkers	Units	OrigDataRate	OrigDataStartFrame	OrigNumFrames
200.000000	200.000000	4	61	mm	200.000000	0	1235
Frame#	Time	FHD			LBHD			RBHD			C7			T10			CLAV			LSHO			LUUPA			LMUPA			LDUPA			LLEP			LMEP			LRAD			LUL			LRFIN			RSHO			RUPA1			RMUPA			RDUPA			RLEP			RMEP			RRAD			RUL			RUFIN			LASI			RASI			USACR			LSACR			RSACR			LTHI1			LTHI2			LTHI3			LTHI4			LLFC			LMFC			LTIB1			LTIB2			LTIB3			LTIB4			LLMAL			LMMAL			LHEE			LMT1			LMT2			LMT5			RTHI			RTHI2			RTHI3			RTHI4			RLFC			RMFC			RTIB1			RTIB2			RTIB3			RTIB4			RLMAL			RMMAL			RHEE			RMT1			RMT2			RMT5			
		X1	Y1	Z1	X2	Y2	Z2	X3	Y3	Z3	X4	Y4	Z4	X5	Y5	Z5	X6	Y6	Z6	X7	Y7	Z7	X8	Y8	Z8	X9	Y9	Z9	X10	Y10	Z10	X11	Y11	Z11	X12	Y12	Z12	X13	Y13	Z13	X14	Y14	Z14	X15	Y15	Z15	X16	Y16	Z16	X17	Y17	Z17	X18	Y18	Z18	X19	Y19	Z19	X20	Y20	Z20	X21	Y21	Z21	X22	Y22	Z22	X23	Y23	Z23	X24	Y24	Z24	X25	Y25	Z25	X26	Y26	Z26	X27	Y27	Z27	X28	Y28	Z28	X29	Y29	Z29	X30	Y30	Z30	X31	Y31	Z31	X32	Y32	Z32	X33	Y33	Z33	X34	Y34	Z34	X35	Y35	Z35	X36	Y36	Z36	X37	Y37	Z37	X38	Y38	Z38	X39	Y39	Z39	X40	Y40	Z40	X41	Y41	Z41	X42	Y42	Z42	X43	Y43	Z43	X44	Y44	Z44	X45	Y45	Z45	X46	Y46	Z46	X47	Y47	Z47	X48	Y48	Z48	X49	Y49	Z49	X50	Y50	Z50	X51	Y51	Z51	X52	Y52	Z52	X53	Y53	Z53	X54	Y54	Z54	X55	Y55	Z55	X56	Y56	Z56	X57	Y57	Z57	X58	Y58	Z58	X59	Y59	Z59	X60	Y60	Z60	X61	Y61	Z61	

1	0	-154.2312774658203	1757.840698242188	-804.9481201171877	-304.3971252441407	1687.109252929688	-876.992614746094	-147.0959625244141	1770.01806640625	-947.008972167969	-324.1911315917969	1568.0048828125	-898.550964355469	-391.396209716797	1261.743896484375	-891.2673339843752	-179.1640014648438	1488.919921875	-885.3109130859377	-177.3326110839844	1552.075927734375	-1054.321533203125	-333.9370117187501	1461.954956054688	-1211.71923828125	-310.9929199218751	1417.642578125	-1221.433837890625	-366.4677124023438	1409.7158203125	-1247.275024414063	-408.4254150390626	1340.569580078125	-1277.01904296875	-461.0780639648439	1344.0888671875	-1222.59130859375	-388.0617065429689	1141.661987304688	-1087.869506835938	-313.0063171386719	1151.259033203125	-1082.314208984375	-364.1850280761719	1090.205444335938	-1146.838989257813	-202.1110992431641	1551.586669921875	-714.4371337890626	-342.4865112304688	1446.849853515625	-556.7368164062501	-316.9992370605469	1403.091064453125	-556.8479003906251	-362.1979980468751	1388.783447265625	-520.4347534179689	-398.4177856445314	1333.418212890625	-490.1173706054689	-464.1716308593751	1320.654418945313	-550.5184326171876	-334.4987792968751	1148.367065429688	-673.2993774414064	-321.0482788085938	1093.718872070313	-615.1759033203126	-265.7291259765626	1120.128051757813	-703.0584106445314	-253.7598419189454	1026.68603515625	-1011.118469238281	-242.0957031250001	1027.767700195313	-779.2100830078127	-420.6455993652345	1145.99462890625	-877.327331542969	-435.3886718750001	1116.117553710938	-903.978210449219	-431.5000915527345	1115.7216796875	-846.560485839844	-318.7811889648438	767.9720458984376	-1120.390014648438	-286.9807434082032	689.0104370117189	-1129.011840820313	-240.2061157226563	688.7568359375001	-1109.687255859375	-314.1840515136719	635.5279541015626	-1117.861206054688	-304.4324645996094	538.6690673828126	-1120.333618164063	-265.8869018554688	517.9647216796876	-1001.705688476563	-253.6578826904297	397.9549255371095	-1106.290771484375	-316.6195983886719	375.7361755371094	-1160.55517578125	-277.6699523925782	360.9722900390626	-1142.543212890625	-286.1766967773438	276.8075256347657	-1127.30712890625	-370.2107543945313	90.56336975097658	-1156.615478515625	-336.9469299316407	96.21238708496097	-1067.840454101563	-428.932830810547	49.77898406982423	-1103.866577148438	-202.7937011718751	62.59449386596681	-1115.346557617188	-205.8479919433594	62.75869369506837	-1161.967895507813	-258.9615478515626	37.57949829101563	-1211.471069335938	-353.3926696777344	844.747009277344	-673.8449096679689	-310.3627014160157	795.5502929687502	-661.6626586914064	-278.0883789062501	798.0811767578127	-665.0408325195314	-329.9553527832032	712.1973876953126	-667.5009155273439	-307.8786926269532	536.4429931640626	-659.1454467773439	-252.3619537353516	506.9991760253907	-777.8586425781252	-265.6605529785157	322.1213684082032	-707.6726684570314	-321.6776428222657	259.1821289062501	-637.6825561523439	-284.7024230957032	246.1189270019532	-664.2522583007814	-293.4365844726563	198.4999084472657	-694.5723266601564	-364.2406005859376	98.38559722900393	-646.1505737304689	-328.6092224121094	107.435287475586	-731.5751953125001	-428.0418395996095	53.10570144653322	-703.6163330078126	-210.0750427246094	58.09977340698244	-690.8164672851564	-211.5615539550782	60.13138961791994	-638.3988647460939	-256.8822021484376	23.22937965393067	-589.4115600585939	
2	0.005	-154.101791381836	1757.87158203125	-805.014587402344	-304.2384948730469	1687.148681640625	-877.089050292969	-146.9039611816407	1770.062622070313	-947.0991821289065	-324.1629333496094	1568.079345703125	-898.6140747070315	-391.5741577148439	1261.881591796875	-891.1582641601565	-179.0673370361328	1489.067504882813	-885.4245605468752	-177.2545013427735	1552.172973632813	-1054.384521484375	-333.5485229492188	1462.162353515625	-1212.1201171875	-310.6168823242188	1417.7919921875	-1221.702880859375	-366.0985412597657	1410.002685546875	-1247.619262695313	-408.1990051269532	1340.852905273438	-1277.262451171875	-460.8681945800782	1344.378540039063	-1222.93896484375	-388.251922607422	1141.970336914063	-1088.01318359375	-313.1173706054688	1151.475708007813	-1082.393310546875	-364.2965087890626	1090.4619140625	-1146.9716796875	-201.8629302978516	1551.624877929688	-714.5612792968751	-342.1594238281251	1446.932495117188	-556.7873535156251	-316.6405944824219	1403.109497070313	-557.0208740234376	-361.8964233398438	1388.748168945313	-520.4755859375001	-398.1218261718751	1333.357055664063	-490.1855468750001	-463.8867187500001	1320.649780273438	-550.5319824218751	-334.3835449218751	1148.370361328125	-673.3358154296876	-320.8777465820313	1093.748291015625	-615.2519531250001	-265.4063110351563	1120.149780273438	-703.3457641601564	-254.5012969970704	1026.845825195313	-1011.288452148438	-242.1394348144532	1027.987182617188	-779.4647216796877	-420.8039855957032	1146.191284179688	-877.2879638671877	-435.6920471191407	1116.31640625	-903.980163574219	-431.6931457519532	1116.021728515625	-846.5220947265627	-319.8722229003907	768.1487426757815	-1120.695434570313	-287.8844909667969	689.1168212890626	-1129.587036132813	-241.0499877929688	689.0783081054689	-1110.513427734375	-315.0849914550782	635.7658691406251	-1118.16455078125	-305.0030517578126	538.8142089843751	-1120.683471679688	-265.8974304199219	518.2058105468751	-1002.497802734375	-253.9344024658204	398.4006652832032	-1106.979858398438	-317.2758789062501	375.9561767578126	-1160.962280273438	-278.3341369628907	361.1904296875001	-1143.221801757813	-286.4414672851563	276.9328308105469	-1127.870239257813	-370.3271484375001	90.47347259521486	-1156.709350585938	-336.9895019531251	96.33956146240237	-1068.085815429688	-428.9110412597657	49.81777954101564	-1103.852416992188	-202.6945343017579	62.75690078735353	-1115.463012695313	-205.8405914306641	62.73558044433595	-1162.162109375	-258.9369506835938	37.43057250976563	-1211.608276367188	-353.3548278808594	844.8312988281252	-673.9696044921876	-310.2783203125001	795.6573486328127	-661.9388427734376	-277.7882385253907	798.4270019531252	-665.5288696289064	-329.9513549804688	712.3390502929689	-667.6497192382814	-307.9462890625001	536.6080322265626	-659.3828735351564	-252.6418914794922	507.0735778808595	-778.2280883789065	-265.4370727539063	322.3132934570313	-708.0244140625001	-321.6076354980469	259.1979064941407	-637.8196411132814	-284.6864013671876	246.1895446777344	-664.5296020507814	-293.4491577148438	198.5346984863282	-694.8161010742189	-364.1611022949219	98.44695281982425	-646.2950439453126	-328.5436096191407	107.485595703125	-731.7329711914064	-427.9486389160157	53.16262054443361	-703.7551879882814	-210.0228424072266	58.05576324462892	-690.9058227539064	-211.5927734375001	59.95538330078126	-638.1156616210939	-256.8768615722657	23.30542373657227	-589.4610595703126	
3	0.01	-153.8290710449219	1757.929565429688	-805.1414184570315	-304.0591735839844	1687.2353515625	-877.1765747070315	-146.6734924316407	1770.120727539063	-947.1973266601565	-324.1312866210938	1568.089721679688	-898.7278442382815	-391.6968688964845	1261.981323242188	-891.0631103515627	-178.9395446777344	1489.195922851563	-885.5274047851565	-177.0634002685547	1552.332275390625	-1054.459106445313	-333.0897827148438	1462.300903320313	-1212.413818359375	-310.2214965820313	1417.884521484375	-1221.903076171875	-365.8451538085938	1410.214965820313	-1247.7783203125	-407.5025634765626	1340.878662109375	-1276.845581054688	-460.7032470703126	1344.618774414063	-1223.346923828125	-388.5100097656251	1142.29296875	-1088.198486328125	-313.4288024902344	1151.652709960938	-1082.40771484375	-364.4861145019532	1090.76220703125	-1147.126953125	-201.6604309082032	1551.75927734375	-714.6084594726564	-341.9415588378907	1446.9423828125	-556.8429565429689	-316.1683349609376	1403.107421875	-557.2167358398439	-361.6862182617188	1388.777465820313	-520.4791259765626	-397.841766357422	1333.405639648438	-490.1868286132814	-463.6531677246095	1320.684936523438	-550.5332641601564	-334.2502746582032	1148.414306640625	-673.4490356445314	-320.5431518554688	1093.793823242188	-615.3782348632814	-265.3014831542969	1120.178833007813	-703.5446166992189	-254.9790039062501	1027.004028320313	-1011.599914550781	-242.3085327148438	1028.14794921875	-779.7811279296877	-420.9854125976564	1146.402099609375	-877.3509521484377	-435.9313964843751	1116.602416992188	-903.9810180664065	-431.8528137207032	1116.32568359375	-846.5266723632815	-320.9978942871094	768.293151855469	-1121.233276367188	-288.9574584960938	689.2098999023439	-1130.202270507813	-241.9045410156251	689.3508911132814	-1111.396728515625	-316.0315856933594	636.0239868164064	-1118.47802734375	-305.6684875488282	538.9770507812501	-1121.1123046875	-265.8963012695313	518.4252319335939	-1003.244506835938	-254.3065032958985	398.7901000976564	-1107.666137695313	-317.9320983886719	376.1814575195313	-1161.30126953125	-278.8373718261719	361.4644165039063	-1143.6708984375	-287.0610046386719	277.0722656250001	-1128.369750976563	-370.4009094238282	90.45253753662111	-1156.764892578125	-336.9907226562501	96.42536926269534	-1068.250122070313	-428.917449951172	49.80521392822267	-1103.854614257813	-202.7260894775391	62.75977325439455	-1115.603637695313	-205.8690338134766	62.70412826538087	-1162.296752929688	-258.9929199218751	37.31919479370118	-1211.687377929688	-353.2970275878907	844.946960449219	-674.0612182617189	-310.0609130859376	795.844177246094	-662.2479858398439	-277.4872436523438	798.9517211914065	-665.3629760742189	-329.8217468261719	712.4813842773439	-667.8088378906251	-307.9335021972657	536.7602539062501	-659.5601196289064	-252.9197235107422	507.1721191406251	-778.6363525390627	-265.2730407714844	322.5700378417969	-708.3451538085939	-321.3150939941407	259.3549804687501	-638.0399780273439	-284.6073303222657	246.2579193115235	-664.7565307617189	-293.4904479980469	198.5796661376954	-695.0587768554689	-364.1294860839844	98.49282836914065	-646.4689331054689	-328.3976135253907	107.533317565918	-731.9113769531251	-427.9433898925782	53.3032913208008	-703.9316406250001	-208.6942901611329	58.01985931396486	-690.3224487304689	-211.4932556152344	59.98337936401369	-638.2290039062501	-256.9064636230469	23.38418769836426	-589.5030517578126	
4	0.015	-153.7100219726563	1757.943603515625	-805.2156372070315	-303.7127990722657	1687.252075195313	-877.3548583984377	-146.531234741211	1770.135986328125	-947.3040771484377	-323.9833068847657	1568.146240234375	-898.8156738281252	-391.7993164062501	1262.063842773438	-891.0017700195315	-178.8877563476563	1489.250854492188	-885.6831054687502	-176.9600677490235	1552.448974609375	-1054.482788085938	-332.7415466308594	1462.435913085938	-1212.701538085938	-309.9097290039063	1417.951782226563	-1222.14208984375	-365.4894714355469	1410.306030273438	-1248.05908203125	-407.259735107422	1341.09521484375	-1277.125	-460.4821166992189	1344.993896484375	-1223.839233398438	-388.6904907226564	1142.520141601563	-1088.369262695313	-313.6359863281251	1151.932006835938	-1082.584350585938	-364.7959289550782	1090.989501953125	-1147.232421875	-201.3720703125001	1551.881103515625	-714.6859741210939	-341.5970458984376	1446.91748046875	-556.9617309570314	-315.9901123046876	1403.152587890625	-557.2359008789064	-361.1674804687501	1388.890380859375	-520.5844726562501	-397.4410400390626	1333.437866210938	-490.2754516601564	-463.2930603027345	1320.713134765625	-550.5804443359376	-334.1058959960938	1148.442504882813	-673.5054931640626	-320.2267456054688	1093.924194335938	-615.4972534179689	-265.0757751464844	1120.232299804688	-703.8037719726564	-255.6484069824219	1027.048583984375	-1011.8154296875	-242.4745788574219	1028.17822265625	-780.049011230469	-421.2351379394532	1146.632446289063	-877.3605957031252	-436.2605895996095	1116.843383789063	-903.9470214843752	-431.8875427246095	1116.67236328125	-846.535095214844	-321.9884948730469	768.431823730469	-1121.626220703125	-290.1286926269532	689.3047485351564	-1130.623779296875	-242.9577331542969	689.5079956054689	-1112.140991210938	-316.8719787597657	636.1960449218751	-1118.781127929688	-306.5592956542969	539.1070556640626	-1121.439575195313	-265.8846130371094	518.7439575195314	-1003.92138671875	-254.5724182128907	398.9996337890626	-1108.387817382813	-318.6430664062501	376.3359375000001	-1161.667358398438	-279.3749694824219	361.6919860839844	-1144.1123046875	-287.3569030761719	277.2441711425782	-1128.959228515625	-370.4891662597657	90.37228393554689	-1156.8037109375	-336.9364013671876	96.50016021728518	-1068.4501953125	-429.8467407226564	50.49401855468751	-1103.585083007813	-202.7641906738282	62.8602867126465	-1115.647216796875	-205.8588256835938	62.71800994873048	-1162.3935546875	-258.9666442871094	37.22125244140626	-1211.768310546875	-353.2404785156251	845.0874633789065	-674.1463623046876	-309.9432983398438	796.0145263671877	-662.5809936523439	-277.2926025390626	799.1523437500002	-665.8713378906251	-329.7943115234376	712.6603393554689	-667.8978271484376	-307.9158325195313	536.8253173828126	-659.7492675781251	-253.1764831542969	507.3609008789064	-779.0286254882815	-265.3901367187501	322.6547851562501	-708.7025146484376	-321.2286987304688	259.4538879394532	-638.1845703125001	-284.4577026367188	246.4431762695313	-665.0955200195314	-293.4610290527344	198.6030426025391	-695.3440551757814	-364.0645751953126	98.5845642089844	-646.6580810546876	-328.1730041503907	107.6287078857422	-732.1716918945314	-427.7565917968751	53.41229629516603	-704.1976928710939	-208.6496887207032	57.9752883911133	-690.3950195312501	-211.374984741211	59.98067855834962	-638.3379516601564	-256.9210815429688	23.46035385131836	-589.5817260742189	
